<svg xmlns="http://www.w3.org/2000/svg" version="1.1" xmlns:xlink="http://www.w3.org/1999/xlink" xmlns:svgjs="http://svgjs.dev/svgjs" width="1000" height="623" viewBox="0 0 1000 623"><g transform="matrix(1,0,0,1,-0.6060606060606233,0.2522267206477409)"><svg viewBox="0 0 396 247" data-background-color="#f6d64c" preserveAspectRatio="xMidYMid meet" height="623" width="1000" xmlns="http://www.w3.org/2000/svg" xmlns:xlink="http://www.w3.org/1999/xlink"><g id="tight-bounds" transform="matrix(1,0,0,1,0.2400000000000091,-0.09999999999999432)"><svg viewBox="0 0 395.52 247.2" height="247.2" width="395.52"><g><svg></svg></g><g><svg viewBox="0 0 395.52 247.2" height="247.2" width="395.52"><g transform="matrix(1,0,0,1,39.55200000000002,88.76231279338471)"><svg viewBox="0 0 316.41599999999994 69.67537441323057" height="69.67537441323057" width="316.41599999999994"><g><svg viewBox="0 0 316.41599999999994 69.67537441323057" height="69.67537441323057" width="316.41599999999994"><g><svg viewBox="0 0 316.41599999999994 69.67537441323057" height="69.67537441323057" width="316.41599999999994"><g id="textblocktransform"><svg viewBox="0 0 316.41599999999994 69.67537441323057" height="69.67537441323057" width="316.41599999999994" id="textblock"><g><svg viewBox="0 0 316.41599999999994 49.862403645338894" height="49.862403645338894" width="316.41599999999994"><g transform="matrix(1,0,0,1,0,0)"><svg width="316.41599999999994" viewBox="3.75 -40.95000076293945 263.32000732421875 41.5" height="49.862403645338894" data-palette-color="#454545"><g class="undefined-text-0" data-fill-palette-color="primary" id="text-0"><path d="M13.3 0L3.75 0 3.75-40.5 12.1-40.5Q14.9-40.5 16.73-39.73 18.55-38.95 19.58-37.55 20.6-36.15 21.03-34.33 21.45-32.5 21.45-30.4L21.45-30.4Q21.45-28.8 21.08-26.98 20.7-25.15 19.7-23.75 18.7-22.35 16.7-21.85L16.7-21.85Q19.05-21.15 20.28-19.45 21.5-17.75 21.93-15.68 22.35-13.6 22.35-11.8L22.35-11.8Q22.35-9.5 22.03-7.4 21.7-5.3 20.75-3.63 19.8-1.95 18.03-0.98 16.25 0 13.3 0L13.3 0ZM6.45-20.6L6.45-2.15 12.95-2.15Q16.95-2.15 18.32-4.5 19.7-6.85 19.7-11.75L19.7-11.75Q19.7-14.2 19.13-16.2 18.55-18.2 17.18-19.4 15.8-20.6 13.35-20.6L13.35-20.6 6.45-20.6ZM6.45-38.3L6.45-22.75 13.3-22.75Q15.55-22.75 16.75-23.8 17.95-24.85 18.43-26.58 18.9-28.3 18.9-30.4L18.9-30.4Q18.9-32.65 18.35-34.45 17.8-36.25 16.23-37.27 14.65-38.3 11.45-38.3L11.45-38.3 6.45-38.3ZM30.9 0L28.2 0 28.2-40.5 30.9-40.5 30.9 0ZM52.55 0L38.4 0 38.4-40.5 52.4-40.5 52.4-38.3 41.15-38.3 41.15-22.05 50.4-22.05 50.4-19.95 41.15-19.95 41.15-2.15 52.55-2.15 52.55 0ZM60.79 0L58.09 0 58.09-40.5 67.89-40.5Q71.49-40.5 73.42-39.18 75.34-37.85 76.07-35.58 76.79-33.3 76.79-30.5L76.79-30.5Q76.79-28.25 76.32-26.2 75.84-24.15 74.57-22.73 73.29-21.3 70.84-20.9L70.84-20.9 77.34 0 74.64 0 68.34-20.4 60.79-20.4 60.79 0ZM60.79-38.35L60.79-22.5 67.79-22.5Q70.39-22.5 71.74-23.48 73.09-24.45 73.62-26.25 74.14-28.05 74.14-30.5L74.14-30.5Q74.14-34.35 72.87-36.35 71.59-38.35 67.74-38.35L67.74-38.35 60.79-38.35ZM86.19 0L83.44 0 83.44-40.5 86.19-40.5 86.19-17.75 97.94-40.5 100.64-40.5 92.09-23.35 102.69 0 99.99 0 90.44-21 86.19-13.25 86.19 0ZM109.19 0L106.49 0 106.49-40.5 116.29-40.5Q119.89-40.5 121.81-39.18 123.74-37.85 124.46-35.58 125.19-33.3 125.19-30.5L125.19-30.5Q125.19-28.25 124.71-26.2 124.24-24.15 122.96-22.73 121.69-21.3 119.24-20.9L119.24-20.9 125.74 0 123.04 0 116.74-20.4 109.19-20.4 109.19 0ZM109.19-38.35L109.19-22.5 116.19-22.5Q118.79-22.5 120.14-23.48 121.49-24.45 122.01-26.25 122.54-28.05 122.54-30.5L122.54-30.5Q122.54-34.35 121.26-36.35 119.99-38.35 116.14-38.35L116.14-38.35 109.19-38.35ZM145.99 0L131.84 0 131.84-40.5 145.84-40.5 145.84-38.3 134.59-38.3 134.59-22.05 143.84-22.05 143.84-19.95 134.59-19.95 134.59-2.15 145.99-2.15 145.99 0ZM154.28 0L151.58 0 151.58-40.5 154.28-40.5 154.28 0ZM169.93 0.5L169.93 0.5Q166.73 0.5 164.66-0.8 162.58-2.1 161.51-4.45 160.43-6.8 160.18-10L160.18-10 162.53-10.75Q162.88-8.1 163.61-6.05 164.33-4 165.83-2.88 167.33-1.75 169.98-1.75L169.98-1.75Q172.98-1.75 174.71-3.25 176.43-4.75 176.43-8.25L176.43-8.25Q176.43-10.9 175.06-13.03 173.68-15.15 171.18-17.6L171.18-17.6 163.78-24.95Q161.93-26.85 161.08-28.75 160.23-30.65 160.23-32.65L160.23-32.65Q160.23-36.65 162.71-38.8 165.18-40.95 169.13-40.95L169.13-40.95Q171.18-40.95 172.83-40.43 174.48-39.9 175.71-38.73 176.93-37.55 177.63-35.6 178.33-33.65 178.53-30.8L178.53-30.8 176.23-30.25Q176.03-33.1 175.28-35 174.53-36.9 173.08-37.83 171.63-38.75 169.18-38.75L169.18-38.75Q166.43-38.75 164.58-37.35 162.73-35.95 162.73-32.85L162.73-32.85Q162.73-31.3 163.36-29.85 163.98-28.4 165.68-26.7L165.68-26.7 172.98-19.5Q175.43-17.1 177.21-14.38 178.98-11.65 178.98-8.4L178.98-8.4Q178.98-5.35 177.83-3.38 176.68-1.4 174.63-0.45 172.58 0.5 169.93 0.5ZM199.38 0L184.43 0 184.43-40.5 187.13-40.5 187.13-2.15 199.38-2.15 199.38 0ZM203.63 0L200.93 0 209.43-40.5 212.58-40.5 221.13 0 218.38 0 216.28-11.2 205.78-11.2 203.63 0ZM211.03-37.2L206.18-13.2 215.93-13.2 211.03-37.2ZM236.07 0.55L236.07 0.55Q232.12 0.55 229.92-0.78 227.72-2.1 226.85-4.38 225.97-6.65 225.97-9.5L225.97-9.5 225.97-40.5 228.67-40.5 228.67-9.45Q228.67-7.25 229.3-5.48 229.92-3.7 231.55-2.7 233.17-1.7 236.07-1.7L236.07-1.7Q238.82-1.7 240.45-2.73 242.07-3.75 242.77-5.5 243.47-7.25 243.47-9.45L243.47-9.45 243.47-40.5 246.12-40.5 246.12-9.5Q246.12-6.65 245.17-4.38 244.22-2.1 242.05-0.78 239.87 0.55 236.07 0.55ZM255.82 0L253.12 0 253.12-40.5 267.07-40.5 267.07-38.35 255.82-38.35 255.82-22.05 265.52-22.05 265.52-19.95 255.82-19.95 255.82 0Z" fill="#454545" data-fill-palette-color="primary"></path></g></svg></g></svg></g><g transform="matrix(1,0,0,1,79.10399999999998,61.63372044831592)"><svg viewBox="0 0 158.20799999999997 8.04165396491466" height="8.04165396491466" width="158.20799999999997"><g transform="matrix(1,0,0,1,0,0)"><svg width="158.20799999999997" viewBox="1.559999942779541 -36.060001373291016 719.4500122070312 36.56999969482422" height="8.04165396491466" data-palette-color="#454545"><path d="M15.6 0L12.82 0 4.27-33.23 1.56-33.4 1.56-35.55 11.08-35.55 11.08-33.4 7.28-33.15 12.96-10.03 14.28-4.91 14.43-4.91 15.92-10.01 24-35.55 26.73-35.55 34.84-10.01 36.28-4.79 36.43-4.79 37.87-10.01 43.48-33.15 39.55-33.4 39.55-35.55 48.97-35.55 48.97-33.4 46.36-33.23 37.99 0 35.08 0 26.51-27.32 25.42-30.88 25.27-30.88 24.22-27.32 15.6 0ZM78.42 0L52.15 0 52.15-2.12 56.13-2.44 56.13-33.08 52.15-33.4 52.15-35.55 77.68-35.55 77.68-27.76 75.19-27.76 74.95-33.13 59.06-33.13 59.06-19.68 73.39-19.68 73.39-17.24 59.06-17.24 59.06-2.37 75.71-2.37 75.95-7.79 78.42-7.79 78.42 0ZM94.45 0L83.56 0 83.56-2.12 87.54-2.44 87.54-33.08 83.56-33.4 83.56-35.55 94.45-35.55 94.45-33.4 90.47-33.08 90.47-2.44 94.45-2.12 94.45 0ZM110.86 0.51L110.86 0.51Q107.81 0.51 104.77-0.42 101.73-1.34 98.89-3.3L98.89-3.3 98.89-10.18 101.34-10.18 101.7-4.64Q103.85-3.3 106.17-2.64 108.49-1.98 110.86-1.98L110.86-1.98Q113.66-1.98 115.75-2.84 117.84-3.71 119-5.26 120.16-6.81 120.16-8.84L120.16-8.84Q120.16-10.79 119.22-12.27 118.28-13.75 116.17-14.87 114.06-15.99 110.44-16.92L110.44-16.92Q106.56-17.92 104.11-19.26 101.65-20.61 100.49-22.5 99.33-24.39 99.33-27L99.33-27Q99.33-29.66 100.75-31.7 102.17-33.74 104.72-34.9 107.27-36.06 110.66-36.06L110.66-36.06Q114.25-36.06 117.07-34.99 119.89-33.91 121.84-32.23L121.84-32.23 121.84-25.88 119.43-25.88 119.06-30.91Q117.52-32.15 115.42-32.86 113.32-33.57 110.66-33.57L110.66-33.57Q108.05-33.57 106.17-32.7 104.29-31.84 103.28-30.37 102.26-28.91 102.26-27.05L102.26-27.05Q102.26-25.27 103.07-23.91 103.87-22.56 105.85-21.52 107.83-20.48 111.39-19.53L111.39-19.53Q117.18-18.04 120.13-15.52 123.09-12.99 123.09-8.89L123.09-8.89Q123.09-6.05 121.54-3.94 119.99-1.83 117.23-0.66 114.47 0.51 110.86 0.51ZM140 0.51L140 0.51Q136.95 0.51 133.91-0.42 130.87-1.34 128.04-3.3L128.04-3.3 128.04-10.18 130.48-10.18 130.85-4.64Q133-3.3 135.32-2.64 137.64-1.98 140-1.98L140-1.98Q142.81-1.98 144.9-2.84 146.99-3.71 148.15-5.26 149.31-6.81 149.31-8.84L149.31-8.84Q149.31-10.79 148.37-12.27 147.43-13.75 145.31-14.87 143.2-15.99 139.59-16.92L139.59-16.92Q135.71-17.92 133.25-19.26 130.8-20.61 129.64-22.5 128.48-24.39 128.48-27L128.48-27Q128.48-29.66 129.9-31.7 131.31-33.74 133.86-34.9 136.42-36.06 139.81-36.06L139.81-36.06Q143.4-36.06 146.22-34.99 149.04-33.91 150.99-32.23L150.99-32.23 150.99-25.88 148.57-25.88 148.21-30.91Q146.67-32.15 144.57-32.86 142.47-33.57 139.81-33.57L139.81-33.57Q137.2-33.57 135.32-32.7 133.44-31.84 132.42-30.37 131.41-28.91 131.41-27.05L131.41-27.05Q131.41-25.27 132.22-23.91 133.02-22.56 135-21.52 136.98-20.48 140.54-19.53L140.54-19.53Q146.33-18.04 149.28-15.52 152.24-12.99 152.24-8.89L152.24-8.89Q152.24-6.05 150.69-3.94 149.14-1.83 146.38-0.66 143.62 0.51 140 0.51ZM176.31 0L165.42 0 165.42-2.12 169.4-2.44 169.4-33.15 159.41-33.15 159.09-27.73 156.7-27.73 156.7-35.55 185-35.55 185-27.73 182.63-27.73 182.29-33.15 172.33-33.15 172.33-2.44 176.31-2.12 176.31 0ZM215.12 0L201.25 0 201.25-2.12 205.23-2.44 205.23-33.08 201.25-33.4 201.25-35.55 205.23-35.55 215-35.55Q219.54-35.55 222.98-33.29 226.42-31.03 228.39-27.09 230.35-23.14 230.35-18.07L230.35-18.07 230.35-17.48Q230.35-12.43 228.42-8.48 226.5-4.54 223.07-2.27 219.64 0 215.12 0L215.12 0ZM208.16-33.08L208.16-2.44 215-2.44Q218.71-2.44 221.49-4.43 224.27-6.42 225.85-9.83 227.42-13.23 227.42-17.48L227.42-17.48 227.42-18.12Q227.42-22.41 225.85-25.79 224.27-29.17 221.49-31.13 218.71-33.08 215-33.08L215-33.08 208.16-33.08ZM250.88 0.51L250.88 0.51Q247.22 0.51 244.43-0.89 241.63-2.29 240.04-4.97 238.46-7.64 238.46-11.45L238.46-11.45 238.46-33.08 234.48-33.4 234.48-35.55 245.37-35.55 245.37-33.4 241.39-33.08 241.39-11.45Q241.39-8.42 242.59-6.31 243.8-4.2 245.95-3.09 248.1-1.98 250.91-1.98L250.91-1.98Q253.72-1.98 255.89-3.08 258.06-4.17 259.28-6.29 260.5-8.4 260.5-11.45L260.5-11.45 260.5-33.08 256.52-33.4 256.52-35.55 267.41-35.55 267.41-33.4 263.43-33.08 263.43-11.45Q263.43-7.57 261.86-4.91 260.28-2.25 257.45-0.87 254.62 0.51 250.88 0.51ZM293.92 0L283.03 0 283.03-2.12 287.01-2.44 287.01-33.08 283.03-33.4 283.03-35.55 287.01-35.55 289.97-35.55 310.28-4.98 310.42-5.03 310.42-33.08 306.27-33.4 306.27-35.55 313.18-35.55 317.16-35.55 317.16-33.4 313.18-33.08 313.18 0 310.45 0 289.92-30.69 289.77-30.64 289.77-2.44 293.92-2.12 293.92 0ZM336.37 0.51L336.37 0.51Q333 0.51 330.27-0.78 327.54-2.08 325.58-4.47 323.63-6.86 322.58-10.17 321.53-13.48 321.53-17.53L321.53-17.53 321.53-17.99Q321.53-22.05 322.57-25.35 323.61-28.66 325.56-31.07 327.51-33.47 330.25-34.77 332.98-36.06 336.35-36.06L336.35-36.06Q339.79-36.06 342.54-34.77 345.29-33.47 347.23-31.07 349.17-28.66 350.18-25.35 351.19-22.05 351.19-17.99L351.19-17.99 351.19-17.53Q351.19-13.48 350.18-10.17 349.17-6.86 347.24-4.47 345.31-2.08 342.56-0.78 339.82 0.51 336.37 0.51ZM336.37-2.05L336.37-2.05Q340.23-2.05 342.88-3.98 345.53-5.91 346.9-9.4 348.26-12.89 348.26-17.53L348.26-17.53 348.26-18.04Q348.26-22.68 346.88-26.15 345.5-29.61 342.84-31.56 340.18-33.5 336.35-33.5L336.35-33.5Q332.66-33.5 330-31.56 327.34-29.61 325.91-26.14 324.48-22.66 324.48-18.04L324.48-18.04 324.48-17.53Q324.48-12.89 325.91-9.4 327.34-5.91 330.01-3.98 332.69-2.05 336.37-2.05ZM373.21 0.51L373.21 0.51Q367.94 0.51 364.34-1.79 360.74-4.1 358.89-8.18 357.05-12.26 357.05-17.53L357.05-17.53 357.05-17.99Q357.05-23.32 358.97-27.38 360.88-31.45 364.4-33.75 367.91-36.06 372.65-36.06L372.65-36.06Q376.31-36.06 378.96-35.03 381.61-34.01 383.66-32.23L383.66-32.23 383.66-25.32 381.17-25.32 380.93-30.98Q379.85-31.79 378.67-32.35 377.48-32.91 376.03-33.22 374.58-33.52 372.65-33.52L372.65-33.52Q368.77-33.52 365.92-31.56 363.08-29.59 361.53-26.11 359.98-22.63 359.98-18.04L359.98-18.04 359.98-17.53Q359.98-12.79 361.55-9.3 363.13-5.81 366.1-3.91 369.06-2 373.24-2L373.24-2Q375.48-2 377.57-2.56 379.66-3.13 381.1-4.05L381.1-4.05 381.34-9.42 383.81-9.42 383.81-2.34Q381.64-0.93 378.91-0.21 376.19 0.51 373.21 0.51ZM399.43 0L388.54 0 388.54-2.12 392.52-2.44 392.52-33.08 388.54-33.4 388.54-35.55 399.43-35.55 399.43-33.4 395.45-33.08 395.45-18.85 415.52-18.85 415.52-33.08 411.54-33.4 411.54-35.55 415.52-35.55 418.45-35.55 422.43-35.55 422.43-33.4 418.45-33.08 418.45-2.44 422.43-2.12 422.43 0 411.54 0 411.54-2.12 415.52-2.44 415.52-16.38 395.45-16.38 395.45-2.44 399.43-2.12 399.43 0ZM464.56 0L438.29 0 438.29-2.12 442.27-2.44 442.27-33.08 438.29-33.4 438.29-35.55 463.83-35.55 463.83-27.76 461.34-27.76 461.1-33.13 445.2-33.13 445.2-19.68 459.53-19.68 459.53-17.24 445.2-17.24 445.2-2.37 461.85-2.37 462.1-7.79 464.56-7.79 464.56 0ZM480.6 0L469.71 0 469.71-2.12 473.69-2.44 473.69-33.08 469.71-33.4 469.71-35.55 480.6-35.55 480.6-33.4 476.62-33.08 476.62-2.44 480.6-2.12 480.6 0ZM495.2 0L484.31 0 484.31-2.12 488.29-2.44 488.29-33.08 484.31-33.4 484.31-35.55 488.29-35.55 491.24-35.55 511.55-4.98 511.7-5.03 511.7-33.08 507.55-33.4 507.55-35.55 514.46-35.55 518.44-35.55 518.44-33.4 514.46-33.08 514.46 0 511.73 0 491.19-30.69 491.05-30.64 491.05-2.44 495.2-2.12 495.2 0ZM534.89 0.51L534.89 0.51Q531.84 0.51 528.8-0.42 525.76-1.34 522.93-3.3L522.93-3.3 522.93-10.18 525.37-10.18 525.74-4.64Q527.88-3.3 530.2-2.64 532.52-1.98 534.89-1.98L534.89-1.98Q537.7-1.98 539.79-2.84 541.87-3.71 543.03-5.26 544.19-6.81 544.19-8.84L544.19-8.84Q544.19-10.79 543.25-12.27 542.31-13.75 540.2-14.87 538.09-15.99 534.48-16.92L534.48-16.92Q530.59-17.92 528.14-19.26 525.69-20.61 524.53-22.5 523.37-24.39 523.37-27L523.37-27Q523.37-29.66 524.78-31.7 526.2-33.74 528.75-34.9 531.3-36.06 534.7-36.06L534.7-36.06Q538.29-36.06 541.1-34.99 543.92-33.91 545.88-32.23L545.88-32.23 545.88-25.88 543.46-25.88 543.09-30.91Q541.56-32.15 539.46-32.86 537.36-33.57 534.7-33.57L534.7-33.57Q532.08-33.57 530.2-32.7 528.32-31.84 527.31-30.37 526.3-28.91 526.3-27.05L526.3-27.05Q526.3-25.27 527.1-23.91 527.91-22.56 529.89-21.52 531.86-20.48 535.43-19.53L535.43-19.53Q541.21-18.04 544.17-15.52 547.12-12.99 547.12-8.89L547.12-8.89Q547.12-6.05 545.57-3.94 544.02-1.83 541.26-0.66 538.5 0.51 534.89 0.51ZM574.53 0L563.65 0 563.65-2.12 567.63-2.44 567.63-33.08 563.65-33.4 563.65-35.55 567.63-35.55 571.58-35.55 584.72-5.08 584.86-5.08 597.83-35.55 605.96-35.55 605.96-33.4 601.98-33.08 601.98-2.44 605.96-2.12 605.96 0 595.07 0 595.07-2.12 599.14-2.44 599.14-17.6 599.14-31.27 599.02-31.3 585.84-0.59 583.79-0.59 570.46-31.2 570.31-31.15 570.41-17.94 570.41-2.44 574.53-2.12 574.53 0ZM620.7 0L609.81 0 609.81-2.12 613.79-2.44 613.79-33.08 609.81-33.4 609.81-35.55 620.7-35.55 620.7-33.4 616.72-33.08 616.72-2.44 620.7-2.12 620.7 0ZM644.26 0L633.37 0 633.37-2.12 637.35-2.44 637.35-33.15 627.36-33.15 627.04-27.73 624.65-27.73 624.65-35.55 652.95-35.55 652.95-27.73 650.58-27.73 650.24-33.15 640.28-33.15 640.28-2.44 644.26-2.12 644.26 0ZM680.09 0.02L669.2 0.02 669.2-2.12 673.18-2.44 673.18-33.08 669.2-33.4 669.2-35.52 684.19-35.52Q688-35.52 690.64-34.4 693.27-33.28 694.65-31.13 696.03-28.98 696.03-25.83L696.03-25.83Q696.03-22.78 694.61-20.68 693.18-18.58 690.6-17.49 688.03-16.41 684.56-16.38L684.56-16.38 676.11-16.31 676.11-2.44 680.09-2.12 680.09 0.02ZM698.08 0.02L693.1 0.02 685.46-17.63 688.39-17.65 695.18-2.34 698.08-2.15 698.08 0.02ZM676.11-33.08L676.11-18.75 683.9-18.75Q688.66-18.75 690.88-20.7 693.1-22.66 693.1-25.85L693.1-25.85Q693.1-29.3 690.88-31.19 688.66-33.08 684.19-33.08L684.19-33.08 676.11-33.08ZM712.63-9.89L709.7-9.89Q709.7-11.47 709.81-12.51 709.92-13.55 710.25-14.32 710.58-15.09 711.24-15.86 711.9-16.63 713.05-17.65L713.05-17.65Q714.9-19.38 716-20.79 717.1-22.19 717.59-23.63 718.08-25.07 718.08-26.9L718.08-26.9Q718.08-30.03 716.42-31.76 714.76-33.5 711.71-33.5L711.71-33.5Q708.8-33.5 707.07-31.82 705.33-30.15 705.28-27.25L705.28-27.25 702.55-27.25 702.48-27.39Q702.45-30.08 703.62-32.03 704.8-33.98 706.9-35.02 709-36.06 711.71-36.06L711.71-36.06Q716.08-36.06 718.54-33.59 721.01-31.13 721.01-26.95L721.01-26.95Q721.01-24.73 720.32-22.95 719.64-21.17 718.26-19.46 716.88-17.75 714.78-15.77L714.78-15.77Q713.83-14.87 713.37-14.11 712.9-13.35 712.77-12.4 712.63-11.45 712.63-9.89L712.63-9.89ZM713.02 0L709.63 0 709.63-3.74 713.02-3.74 713.02 0Z" opacity="1" transform="matrix(1,0,0,1,0,0)" fill="#454545" class="undefined-text-1" data-fill-palette-color="secondary" id="text-1"></path></svg></g></svg></g></svg></g></svg></g></svg></g></svg></g><g mask="url(&quot;#aa01401b-a352-4e9d-af00-9c116a6c2a16&quot;)"><g transform="matrix(2.546289162277449, 0, 0, 2.546289162277449, 109.37958766709133, 1)"><svg xmlns="http://www.w3.org/2000/svg" xmlns:xlink="http://www.w3.org/1999/xlink" version="1.1" x="0" y="0" viewBox="15.786001205444336 1.74399995803833 69.41899108886719 96.2969970703125" enable-background="new 0 0 100 100" xml:space="preserve" height="96.2969970703125" width="69.41899108886719" class="icon-none" data-fill-palette-color="accent" id="none"><path d="M73.118 28.971h-7.909v-3.904c0-0.396-0.021-1.138-0.04-1.682 1.952-1.58 3.099-3.958 3.099-6.492 0-4.602-3.746-8.347-8.348-8.347-0.644 0-1.285 0.076-1.918 0.229C56.8 6.386 54.375 4.85 51.638 4.85c-1.337 0-2.632 0.376-3.757 1.074-1.987-2.607-5.081-4.18-8.369-4.18-3.981 0-7.557 2.205-9.365 5.693-0.383-0.044-0.789-0.076-1.208-0.076-7.252 0-13.153 5.901-13.153 13.154 0 4.724 2.483 9.011 6.532 11.367l-0.01 61.367c0 2.642 2.15 4.792 4.793 4.792h33.313c2.645 0 4.795-2.15 4.795-4.792V83.139h1.126c4.188 0 9.332-2.85 12.337-5.498 3.725-3.273 6.533-9.761 6.533-15.09V41.059C85.205 34.394 79.783 28.971 73.118 28.971zM26.633 33.979c0-2.112 1.72-3.831 3.833-3.831 2.111 0 3.83 1.719 3.83 3.831 0 0.039-0.011 0.076-0.011 0.115h-7.642C26.644 34.054 26.633 34.018 26.633 33.979zM39.926 33.979c0-2.112 1.72-3.831 3.833-3.831 2.112 0 3.831 1.719 3.831 3.831 0 0.039-0.012 0.076-0.012 0.115h-7.641C39.937 34.054 39.926 34.018 39.926 33.979zM53.22 33.979c0-2.112 1.72-3.831 3.833-3.831 2.111 0 3.83 1.719 3.83 3.831 0 0.039-0.011 0.076-0.011 0.115H53.23C53.23 34.054 53.22 34.018 53.22 33.979zM65.209 38.971h7.909c1.149 0 2.086 0.938 2.086 2.088v21.492c0 2.434-1.554 6.191-3.137 7.585-2.179 1.917-5.146 2.995-5.732 3.003h-1.126V38.971zM18.287 20.517c0-5.874 4.779-10.654 10.653-10.654 0.599 0 1.176 0.088 1.748 0.181l0.985 0.164 0.376-0.925c1.243-3.059 4.172-5.037 7.463-5.037 2.864 0 5.539 1.572 6.98 4.104l0.789 1.382 1.155-1.094c0.879-0.83 2.016-1.287 3.201-1.287 2.056 0 3.84 1.338 4.442 3.328l0.394 1.306 1.267-0.508c0.714-0.286 1.447-0.43 2.18-0.43 3.224 0 5.848 2.622 5.848 5.847 0 1.943-0.963 3.755-2.572 4.846l-0.574 0.391 0.027 0.691c0 0 0.061 1.602 0.061 2.246v6.125c-1.033-2.09-3.17-3.545-5.656-3.545-3.492 0-6.333 2.839-6.333 6.331 0 0.039 0.011 0.076 0.011 0.115h-0.652c0-0.039 0.012-0.076 0.012-0.115 0-3.491-2.84-6.331-6.331-6.331-3.492 0-6.333 2.839-6.333 6.331 0 0.039 0.011 0.076 0.011 0.115h-0.652c0-0.039 0.011-0.076 0.011-0.115 0-3.491-2.839-6.331-6.33-6.331-2.479 0-4.608 1.445-5.647 3.523v-0.798l-0.685-0.347C20.526 28.2 18.287 24.555 18.287 20.517zM82.705 62.551c0 4.606-2.496 10.41-5.685 13.215-2.682 2.363-7.339 4.873-10.686 4.873h-1.126v-5h1.126c1.329 0 4.866-1.414 7.383-3.628 2.124-1.868 3.986-6.289 3.986-9.46V41.059c0-2.529-2.057-4.587-4.586-4.587h-7.909v-5h7.909c5.287 0 9.587 4.302 9.587 9.587V62.551z" fill="#454545" data-fill-palette-color="accent"></path></svg></g></g></svg></g><defs><mask id="aa01401b-a352-4e9d-af00-9c116a6c2a16"><rect width="640" height="400" fill="white"></rect><rect width="348.0576" height="93.21800801918462" fill="black" y="76.99099599040768" x="23.7312" id="transform-me"></rect></mask></defs></svg><rect width="395.52" height="247.2" fill="none" stroke="none" visibility="hidden"></rect></g></svg></g></svg>